0 Demo Town 80s
0 Name: demo_town_80s.ldr
0 Author: LdrawGen [opencode]
0 !LDRAW_ORG Model
0 !LICENSE Redistributable under CCAL version 2.0 : see CAreadme.txt
0 !THEME Town 80s
0 !KEYWORDS 1980s,town,classic,omr,demo
0 !HISTORY 2026-09-11 [LdrawGen] Demo town 80s (build_town)

0 // === Demo 1: Town (OMR 1980s, corpus 100 sets) ===
0 STEP
1 1 -20 0 -20 1 0 0 0 1 0 0 0 1 3022.dat
1 1 -20 0 20 1 0 0 0 1 0 0 0 1 3022.dat
1 1 20 0 -20 1 0 0 0 1 0 0 0 1 3022.dat
1 1 20 0 20 1 0 0 0 1 0 0 0 1 3022.dat
0 STEP
1 15 -20 -40 -20 1 0 0 0 1 0 0 0 1 3003.dat
1 15 20 -40 -20 1 0 0 0 1 0 0 0 1 3003.dat
1 15 -20 -40 20 1 0 0 0 1 0 0 0 1 3003.dat
1 15 20 -40 20 1 0 0 0 1 0 0 0 1 3003.dat
0 STEP
1 15 -20 -64 -20 1 0 0 0 1 0 0 0 1 3003.dat
1 15 20 -64 -20 1 0 0 0 1 0 0 0 1 3003.dat
1 15 -20 -64 20 1 0 0 0 1 0 0 0 1 3003.dat
1 15 20 -64 20 1 0 0 0 1 0 0 0 1 3003.dat
0 STEP
1 15 -20 -88 -20 1 0 0 0 1 0 0 0 1 3003.dat
1 15 20 -88 -20 1 0 0 0 1 0 0 0 1 3003.dat
1 15 -20 -88 20 1 0 0 0 1 0 0 0 1 3003.dat
1 15 20 -88 20 1 0 0 0 1 0 0 0 1 3003.dat
0 STEP
1 4 -20 -112 -20 1 0 0 0 1 0 0 0 1 3820.dat
1 4 20 -112 -20 1 0 0 0 1 0 0 0 1 3820.dat
1 4 -20 -112 20 1 0 0 0 1 0 0 0 1 3820.dat
1 4 20 -112 20 1 0 0 0 1 0 0 0 1 3820.dat
0 STEP
1 14 -20 -112 -20 1 0 0 0 1 0 0 0 1 stud.dat
1 14 20 -112 -20 1 0 0 0 1 0 0 0 1 stud.dat
1 14 -20 -112 20 1 0 0 0 1 0 0 0 1 stud.dat
1 14 20 -112 20 1 0 0 0 1 0 0 0 1 stud.dat
0 STEP
1 6 0 -40 -20 1 0 0 0 1 0 0 0 1 754.dat
0 STEP
1 70 0 -112 20 1 0 0 0 1 0 0 0 1 3005.dat
0 STEP
1 14 0 -120 0 1 0 0 0 1 0 0 0 1 3024.dat
0 STEP
1 4 0 -128 -20 1 0 0 0 1 0 0 0 1 3710.dat
0 STEP
1 0 0 -136 20 1 0 0 0 1 0 0 0 1 4-4cyli.dat
0 // --- end town 80s ---
