0 Demo City Modern
0 Name: demo_city_modern.ldr
0 Author: LdrawGen [opencode]
0 !LDRAW_ORG Model
0 !LICENSE Redistributable under CCAL version 2.0 : see CAreadme.txt
0 !THEME City Modern
0 !KEYWORDS 2010s,city,kids,modern,demo
0 !HISTORY 2026-09-11 [LdrawGen] Demo city modern (build_kid_set)

0 // === Demo 2: City Modern (post-2010 kids style) ===
0 STEP
1 15 -20 0 -20 1 0 0 0 1 0 0 0 1 3022.dat
1 15 -20 0 20 1 0 0 0 1 0 0 0 1 3022.dat
1 15 20 0 -20 1 0 0 0 1 0 0 0 1 3022.dat
1 15 20 0 20 1 0 0 0 1 0 0 0 1 3022.dat
0 STEP
1 71 -20 -40 -20 1 0 0 0 1 0 0 0 1 3003.dat
1 71 20 -40 -20 1 0 0 0 1 0 0 0 1 3003.dat
1 71 -20 -40 20 1 0 0 0 1 0 0 0 1 3003.dat
1 71 20 -40 20 1 0 0 0 1 0 0 0 1 3003.dat
0 STEP
1 71 -20 -64 -20 1 0 0 0 1 0 0 0 1 3004.dat
1 71 20 -64 -20 1 0 0 0 1 0 0 0 1 3004.dat
1 71 -20 -64 20 1 0 0 0 1 0 0 0 1 3004.dat
1 71 20 -64 20 1 0 0 0 1 0 0 0 1 3004.dat
0 STEP
1 9 0 -64 20 1 0 0 0 1 0 0 0 1 6141.dat
0 STEP
1 4 -20 -88 -20 1 0 0 0 1 0 0 0 1 3820.dat
1 4 20 -88 -20 1 0 0 0 1 0 0 0 1 3820.dat
1 4 -20 -88 20 1 0 0 0 1 0 0 0 1 3820.dat
1 4 20 -88 20 1 0 0 0 1 0 0 0 1 3820.dat
0 STEP
1 70 0 -112 0 1 0 0 0 1 0 0 0 1 3005.dat
0 // --- end city modern ---
