0 Demo Police Car
0 Name: demo_police_car.ldr
0 Author: LdrawGen [opencode]
0 !LDRAW_ORG Model
0 !LICENSE Redistributable under CCAL version 2.0 : see CAreadme.txt
0 !THEME City Police
0 !KEYWORDS police-car,city,modern,vehicle,omr,demo
0 !HISTORY 2026-09-12 [LdrawGen] Demo police car (build_police_car)

0 // === Demo 8: Police car (City Modern style, corpus 1438 modern+licensed cohorts) ===
0 STEP
1 0 -40 0 -20 1 0 0 0 1 0 0 0 1 2431.dat
1 71 -40 0 -20 1 0 0 0 1 0 0 0 1 2412b.dat
0 STEP
1 0 -40 0 20 1 0 0 0 1 0 0 0 1 2431.dat
1 71 -40 0 20 1 0 0 0 1 0 0 0 1 2412b.dat
0 STEP
1 0 40 0 -20 1 0 0 0 1 0 0 0 1 2431.dat
1 71 40 0 -20 1 0 0 0 1 0 0 0 1 2412b.dat
0 STEP
1 0 40 0 20 1 0 0 0 1 0 0 0 1 2431.dat
1 71 40 0 20 1 0 0 0 1 0 0 0 1 2412b.dat
0 STEP
1 0 -40 0 0 1 0 0 0 1 0 0 0 1 3022.dat
1 0 0 0 0 1 0 0 0 1 0 0 0 1 3022.dat
1 0 40 0 0 1 0 0 0 1 0 0 0 1 3022.dat
0 STEP
1 15 -40 -8 0 1 0 0 0 1 0 0 0 1 3022.dat
1 15 0 -8 0 1 0 0 0 1 0 0 0 1 3022.dat
1 15 40 -8 0 1 0 0 0 1 0 0 0 1 3022.dat
0 STEP
1 15 40 -16 0 1 0 0 0 1 0 0 0 1 3023.dat
1 15 40 -16 0 1 0 0 0 1 0 0 0 1 3023.dat
0 STEP
1 15 -20 -32 0 1 0 0 0 1 0 0 0 1 3003.dat
0 STEP
1 15 -20 -56 0 1 0 0 0 1 0 0 0 1 3003.dat
0 STEP
1 15 -20 -80 0 1 0 0 0 1 0 0 0 1 3003.dat
0 STEP
1 9 20 -16 0 0 0 1 0 1 0 -1 0 0 3820.dat
0 STEP
1 15 -40 -104 0 1 0 0 0 1 0 0 0 1 3023.dat
1 15 0 -104 0 1 0 0 0 1 0 0 0 1 3023.dat
0 STEP
1 36 -40 -112 0 1 0 0 0 1 0 0 0 1 3024.dat
1 14 0 -112 0 1 0 0 0 1 0 0 0 1 3024.dat
0 STEP
1 272 40 -16 -20 1 0 0 0 1 0 0 0 1 3069b.dat
1 272 40 -16 20 1 0 0 0 1 0 0 0 1 3069b.dat
0 STEP
1 9 -20 -56 -20 1 0 0 0 1 0 0 0 1 3069b.dat
1 9 -20 -56 20 1 0 0 0 1 0 0 0 1 3069b.dat
0 STEP
1 14 40 -16 0 1 0 0 0 1 0 0 0 1 4073.dat
0 STEP
1 4 -60 -16 -20 1 0 0 0 1 0 0 0 1 4073.dat
1 4 -60 -16 20 1 0 0 0 1 0 0 0 1 4073.dat
0 STEP
1 0 60 -16 0 1 0 0 0 1 0 0 0 1 3023.dat
0 // --- end police car ---
