0 Generated by LegoGPT (corpus 1,438)
0 !THEME generated,ml,sample1
0 !KEYWORDS lego,generated,corpus
0 !HISTORY 2026-09-12 [LegoGPT] Generated sample
0 // === 29 pieces ===
0 STEP
1 19 -40 16 -140 -1.0 0.0 0.0 0.0 0.0 -1.0 0.0 -1.0 0.0 1-4edge.dat
1 19 0 0 140 -1.0 0.0 0.0 0.0 0.0 -1.0 0.0 -1.0 0.0 3-16edge.dat
1 19 -60 0 100 0.0 0.0 1.0 0.0 1.0 0.0 -1.0 0.0 0.0 3021.dat
1 19 -60 -24 0 1.0 0.0 0.0 0.0 1.0 0.0 0.0 0.0 1.0 3032.dat
1 19 -60 -24 0 1.0 0.0 0.0 0.0 1.0 0.0 0.0 0.0 1.0 3004.dat
1 19 -60 -24 -20 1.0 0.0 0.0 0.0 1.0 0.0 0.0 0.0 1.0 3004.dat
1 19 -80 -24 -20 0.0 0.0 1.0 0.0 1.0 0.0 -1.0 0.0 0.0 3004.dat
1 19 -60 -24 -20 0.0 0.0 1.0 0.0 1.0 0.0 -1.0 0.0 0.0 3004.dat
1 19 -60 -24 -20 0.0 0.0 1.0 0.0 1.0 0.0 -1.0 0.0 0.0 3004.dat
1 19 -140 -24 -20 0.0 0.0 1.0 0.0 1.0 0.0 -1.0 0.0 0.0 3004.dat
1 19 -60 -24 -80 1.0 0.0 0.0 0.0 1.0 0.0 0.0 0.0 1.0 3023.dat
1 19 -60 -24 -80 1.0 0.0 0.0 0.0 1.0 0.0 0.0 0.0 1.0 3023.dat
1 19 -60 -24 -80 1.0 0.0 0.0 0.0 1.0 0.0 0.0 0.0 1.0 3004.dat
1 19 -60 -48 -40 0.0 0.0 1.0 0.0 1.0 0.0 -1.0 0.0 0.0 3004.dat
1 19 -80 -48 -20 0.0 0.0 1.0 0.0 1.0 0.0 -1.0 0.0 0.0 3004.dat
1 19 -80 -40 -20 0.0 0.0 1.0 0.0 1.0 0.0 -1.0 0.0 0.0 3004.dat
1 19 -80 -48 -40 0.0 0.0 1.0 0.0 1.0 0.0 -1.0 0.0 0.0 3004.dat
1 19 -60 -48 -80 1.0 0.0 0.0 0.0 1.0 0.0 0.0 0.0 1.0 3004.dat
1 19 -80 -48 -40 0.0 0.0 -1.0 0.0 1.0 0.0 1.0 0.0 0.0 3004.dat
1 19 -40 -48 0 0.0 0.0 -1.0 0.0 1.0 0.0 1.0 0.0 0.0 3622.dat
1 19 -60 -48 0 1.0 0.0 0.0 0.0 1.0 0.0 0.0 0.0 1.0 3005.dat
1 19 -80 -48 0 1.0 0.0 0.0 0.0 1.0 0.0 0.0 0.0 1.0 3005.dat
1 19 -80 -48 0 1.0 0.0 0.0 0.0 1.0 0.0 0.0 0.0 1.0 3005.dat
1 19 -40 -48 0 1.0 0.0 0.0 0.0 1.0 0.0 0.0 0.0 1.0 3005.dat
1 19 -80 -48 0 1.0 0.0 0.0 0.0 1.0 0.0 0.0 0.0 1.0 3005.dat
1 19 -80 -48 -40 1.0 0.0 0.0 0.0 1.0 0.0 0.0 0.0 1.0 3005.dat
1 19 -40 -48 -80 1.0 0.0 0.0 0.0 1.0 0.0 0.0 0.0 1.0 3005.dat
1 19 -80 -48 -80 1.0 0.0 0.0 0.0 1.0 0.0 0.0 0.0 1.0 3005.dat
1 19 -60 -48 0 1.0 0.0 0.0 0.0 1.0 0.0 0.0 0.0 1.0 3005.dat
0 NOFILE
