0 Generated by LegoGPT (corpus 1,438)
0 !THEME generated,ml,sample3
0 !KEYWORDS lego,generated,corpus
0 !HISTORY 2026-09-12 [LegoGPT] Generated sample
0 // === 49 pieces ===
0 STEP
1 16 0 -64 60 1.0 0.0 0.0 0.0 1.0 0.0 0.0 0.0 1.0 3070b.dat
1 16 0 -56 40 1.0 0.0 0.0 0.0 1.0 0.0 0.0 0.0 1.0 3004.dat
1 16 0 -56 40 1.0 0.0 0.0 0.0 1.0 0.0 0.0 0.0 1.0 3024.dat
1 16 -40 -80 40 1.0 0.0 0.0 0.0 1.0 0.0 0.0 0.0 1.0 3024.dat
1 16 40 -80 40 1.0 0.0 0.0 0.0 1.0 0.0 0.0 0.0 1.0 3024.dat
1 16 -40 -80 40 1.0 0.0 0.0 0.0 1.0 0.0 0.0 0.0 1.0 3024.dat
1 16 40 -64 40 1.0 0.0 0.0 0.0 1.0 0.0 0.0 0.0 1.0 3024.dat
1 16 -40 -80 40 1.0 0.0 0.0 0.0 1.0 0.0 0.0 0.0 1.0 3024.dat
1 16 40 -80 40 1.0 0.0 0.0 0.0 1.0 0.0 0.0 0.0 1.0 4070.dat
1 16 -40 -80 0 1.0 0.0 0.0 0.0 1.0 0.0 0.0 0.0 1.0 4070.dat
1 16 -40 -80 0 1.0 0.0 0.0 0.0 1.0 0.0 0.0 0.0 1.0 4070.dat
1 16 -40 -80 40 1.0 0.0 0.0 0.0 1.0 0.0 0.0 0.0 1.0 4070.dat
1 16 40 -72 40 1.0 0.0 0.0 0.0 1.0 0.0 0.0 0.0 1.0 4070.dat
1 16 0 -72 0 1.0 0.0 0.0 0.0 1.0 0.0 0.0 0.0 1.0 3710.dat
1 16 40 -80 0 0.0 0.0 -1.0 0.0 1.0 0.0 1.0 0.0 0.0 3710.dat
1 46 40 -80 40 0.0 0.0 -1.0 0.0 1.0 0.0 1.0 0.0 0.0 3024.dat
1 46 -40 -80 40 1.0 0.0 0.0 0.0 1.0 0.0 0.0 0.0 1.0 3024.dat
1 46 -40 -80 0 1.0 0.0 0.0 0.0 1.0 0.0 0.0 0.0 1.0 3024.dat
1 46 -40 -80 0 1.0 0.0 0.0 0.0 1.0 0.0 0.0 0.0 1.0 3024.dat
1 46 -40 -80 0 1.0 0.0 0.0 0.0 1.0 0.0 0.0 0.0 1.0 3024.dat
1 46 40 -80 -40 1.0 0.0 0.0 0.0 1.0 0.0 0.0 0.0 1.0 3024.dat
1 46 40 -80 0 1.0 0.0 0.0 0.0 1.0 0.0 0.0 0.0 1.0 3024.dat
1 46 40 -104 -40 1.0 0.0 0.0 0.0 0.0 -1.0 0.0 1.0 0.0 3024.dat
1 46 -40 -96 -40 1.0 0.0 0.0 0.0 0.0 -1.0 0.0 1.0 0.0 3024.dat
1 0 0 -96 -40 1.0 0.0 0.0 0.0 1.0 0.0 0.0 0.0 1.0 3710.dat
1 0 0 -104 40 1.0 0.0 0.0 0.0 1.0 0.0 0.0 0.0 1.0 3710.dat
1 0 -40 -104 -40 1.0 0.0 0.0 0.0 1.0 0.0 0.0 0.0 1.0 3024.dat
1 0 40 -104 40 1.0 0.0 0.0 0.0 1.0 0.0 0.0 0.0 1.0 3024.dat
1 0 -40 -104 40 1.0 0.0 0.0 0.0 1.0 0.0 0.0 0.0 1.0 3024.dat
1 0 40 -96 40 1.0 0.0 0.0 0.0 1.0 0.0 0.0 0.0 1.0 3024.dat
1 0 -40 -96 40 1.0 0.0 0.0 0.0 1.0 0.0 0.0 0.0 1.0 3024.dat
1 0 40 -96 40 1.0 0.0 0.0 0.0 1.0 0.0 0.0 0.0 1.0 3024.dat
1 0 -40 -96 -40 1.0 0.0 0.0 0.0 1.0 0.0 0.0 0.0 1.0 3024.dat
1 0 0 -96 0 1.0 0.0 0.0 0.0 1.0 0.0 0.0 0.0 1.0 3460.dat
1 0 0 -8 0 1.0 0.0 0.0 0.0 1.0 0.0 0.0 0.0 1.0 3710.dat
1 0 0 -16 0 1.0 0.0 0.0 0.0 1.0 0.0 0.0 0.0 1.0 3710.dat
1 0 -40 -16 0 1.0 0.0 0.0 0.0 1.0 0.0 0.0 0.0 1.0 3024.dat
1 0 40 -16 -40 1.0 0.0 0.0 0.0 1.0 0.0 0.0 0.0 1.0 3024.dat
1 0 0 -16 -40 1.0 0.0 0.0 0.0 1.0 0.0 0.0 0.0 1.0 3023.dat
1 0 0 -24 0 1.0 0.0 0.0 0.0 1.0 0.0 0.0 0.0 1.0 3022.dat
1 0 -20 -8 0 1.0 0.0 0.0 0.0 1.0 0.0 0.0 0.0 1.0 99780.dat
1 0 0 -16 0 1.0 0.0 0.0 0.0 1.0 0.0 0.0 0.0 1.0 3031.dat
1 0 0 -16 -40 1.0 0.0 0.0 0.0 1.0 0.0 0.0 0.0 1.0 3024.dat
1 0 0 -16 -40 1.0 0.0 0.0 0.0 1.0 0.0 0.0 0.0 1.0 3024.dat
1 0 0 -16 0 1.0 0.0 0.0 0.0 1.0 0.0 0.0 0.0 1.0 3024.dat
1 0 40 -16 -40 1.0 0.0 0.0 0.0 1.0 0.0 0.0 0.0 1.0 3024.dat
1 4 0 -16 0 1.0 0.0 0.0 0.0 1.0 0.0 0.0 0.0 1.0 3023.dat
1 4 0 -24 0 1.0 0.0 0.0 0.0 1.0 0.0 0.0 0.0 1.0 3023.dat
1 16 0 -24 -40 1.0 0.0 0.0 0.0 1.0 0.0 0.0 0.0 1.0 3710.dat
0 NOFILE
