0 Generated by LegoGPT (corpus 1,438)
0 !THEME generated,ml,sample2
0 !KEYWORDS lego,generated,corpus
0 !HISTORY 2026-09-12 [LegoGPT] Generated sample
0 // === 39 pieces ===
0 STEP
1 7 0 0 0 0.0 0.0 1.0 0.0 1.0 0.0 -1.0 0.0 0.0 3062b.dat
1 0 0 0 -20 1.0 0.0 0.0 0.0 1.0 0.0 0.0 0.0 1.0 3023.dat
1 0 0 0 0 1.0 0.0 0.0 0.0 1.0 0.0 0.0 0.0 1.0 3819.dat
1 14 0 0 0 0.0 0.0 1.0 0.0 1.0 0.0 -1.0 0.0 0.0 3022.dat
1 4 0 0 0 1.0 0.0 0.0 0.0 1.0 0.0 0.0 0.0 1.0 3641.dat
1 4 0 -24 40 1.0 0.0 0.0 0.0 1.0 0.0 0.0 0.0 1.0 32064a.dat
1 71 0 -24 -20 1.0 0.0 0.0 0.0 1.0 0.0 0.0 0.0 1.0 4519.dat
1 0 0 16 0 0.0 0.0 1.0 0.0 1.0 0.0 -1.0 0.0 0.0 3816.dat
1 4 0 -24 0 -1.0 0.0 0.0 0.0 1.0 0.0 0.0 0.0 -1.0 3660.dat
1 0 0 -24 -20 1.0 0.0 0.0 0.0 1.0 0.0 0.0 0.0 1.0 3818.dat
1 1 0 -24 -20 0.0 0.0 -1.0 0.0 1.0 0.0 1.0 0.0 0.0 3023.dat
1 1 0 -32 40 0.0 0.0 1.0 0.0 1.0 0.0 -1.0 0.0 0.0 4081b.dat
1 71 0 -56 0 0.0 0.0 -1.0 0.0 1.0 0.0 1.0 0.0 0.0 3020.dat
1 0 0 -40 0 -1.0 0.0 0.0 0.0 1.0 0.0 0.0 0.0 -1.0 3666.dat
1 0 0 -8 20 -1.0 0.0 0.0 0.0 1.0 0.0 0.0 0.0 -1.0 3069b.dat
1 0 0 -8 -80 1.0 0.0 0.0 0.0 1.0 0.0 0.0 0.0 1.0 6141.dat
1 16 0 8 0 1.0 0.0 0.0 0.0 1.0 0.0 0.0 0.0 1.0 3701.dat
1 0 -40 -16 -40 1.0 0.0 0.0 0.0 1.0 0.0 0.0 0.0 1.0 6141.dat
1 4 0 -80 -20 -1.0 0.0 0.0 0.0 1.0 0.0 0.0 0.0 -1.0 4070.dat
1 0 -40 -72 0 -1.0 0.0 0.0 0.0 1.0 0.0 0.0 0.0 -1.0 2436a.dat
1 0 0 -32 0 0.0 0.0 1.0 0.0 1.0 0.0 -1.0 0.0 0.0 3817.dat
1 15 0 0 0 0.0 0.0 -1.0 0.0 1.0 0.0 1.0 0.0 0.0 6019.dat
1 0 40 -8 40 0.0 0.0 -1.0 0.0 1.0 0.0 1.0 0.0 0.0 2436a.dat
1 47 0 -8 40 -1.0 0.0 0.0 0.0 1.0 0.0 0.0 0.0 -1.0 6141.dat
1 15 0 -40 0 -1.0 0.0 0.0 0.0 1.0 0.0 0.0 0.0 -1.0 2431.dat
1 256 40 -40 0 0.0 0.0 1.0 0.0 1.0 0.0 -1.0 0.0 0.0 50951.dat
1 16 0 -24 40 1.0 0.0 0.0 0.0 1.0 0.0 0.0 0.0 1.0 87087.dat
1 7 40 -24 0 0.0 0.0 1.0 0.0 1.0 0.0 -1.0 0.0 0.0 6014.dat
1 0 0 8 -40 1.0 0.0 0.0 0.0 1.0 0.0 0.0 0.0 1.0 3794a.dat
1 15 0 -24 0 1.0 0.0 0.0 0.0 1.0 0.0 0.0 0.0 1.0 3818.dat
1 7 -40 -24 0 0.0 0.0 1.0 0.0 1.0 0.0 -1.0 0.0 0.0 33291.dat
1 16 0 -32 -40 0.0 0.0 1.0 0.0 1.0 0.0 -1.0 0.0 0.0 3818.dat
1 0 -40 -16 0 1.0 0.0 0.0 0.0 1.0 0.0 0.0 0.0 1.0 3005.dat
1 0 0 -16 0 0.0 0.0 1.0 0.0 1.0 0.0 -1.0 0.0 0.0 3820.dat
1 4 0 -24 60 1.0 0.0 0.0 0.0 1.0 0.0 0.0 0.0 1.0 3070b.dat
1 0 0 -96 -80 0.0 0.0 1.0 0.0 1.0 0.0 -1.0 0.0 0.0 3023.dat
1 4 40 -16 80 1.0 0.0 0.0 0.0 1.0 0.0 0.0 0.0 1.0 3004.dat
1 4 0 -80 -40 1.0 0.0 0.0 0.0 1.0 0.0 0.0 0.0 1.0 30374.dat
1 4 -40 -64 0 0.0 0.0 1.0 0.0 1.0 0.0 -1.0 0.0 0.0 4593.dat
0 NOFILE
